Case 39

source:

Case.39.2009.720p.BluRay.x264-BestHD 
http://www.imdb.com/title/tt0795351/

ID                               : 1
Format                           : AVC
Format/Info                      : Advanced Video Codec
Format profile                   : Baseline@L2.0
Format settings, CABAC           : No
Format settings, ReFrames        : 3 frames
Codec ID                         : avc1
Codec ID/Info                    : Advanced Video Coding
Duration                         : 1h 49mn
Bit rate mode                    : Variable
Bit rate                         : 400 Kbps
Width                            : 480 pixels
Height                           : 208 pixels
Display aspect ratio             : 2.35:1
Frame rate mode                  : Variable
Frame rate                       : 23.976 fps
Minimum frame rate               : 11.989 fps
Maximum frame rate               : 23.981 fps
Color space                      : YUV
Chroma subsampling               : 4:2:0
Bit depth                        : 8 bits
Scan type                        : Progressive
Bits/(Pixel*Frame)               : 0.167
Stream size                      : 313 MiB (75%)
Writing library                  : x264 core 79

ID                               : 2
Format                           : AAC
Format/Info                      : Advanced Audio Codec
Format version                   : Version 4
Format profile                   : LC
Format settings, SBR             : No
Codec ID                         : 40
Duration                         : 1h 49mn
Bit rate mode                    : Variable
Bit rate                         : 128 Kbps
Maximum bit rate                 : 191 Kbps
Channel(s)                       : 2 channels
Channel positions                : Front: L R
Sampling rate                    : 48.0 KHz
Stream size                      : 100 MiB (24%)
 
http://img716.imageshack.us/img716/6819/vlcsnap00001y.png 
http://img199.imageshack.us/img199/2163/vlcsnap00002s.png 
http://img444.imageshack.us/img444/5927/vlcsnap00003g.png 
http://img72.imageshack.us/img72/9803/vlcsnap00004i.png 
http://img441.imageshack.us/img441/8872/vlcsnap00005s.png 
http://img688.imageshack.us/img688/8296/vlcsnap00006u.png 
http://img149.imageshack.us/img149/1453/vlcsnap00007v.png 
http://img820.imageshack.us/img820/2072/vlcsnap00008b.png




PLEASE LET THE TORRENT SEED AND SHARE IT WITH ALL YOU KNOW!

Let me know what I can do to be your trusted source of Handheld videos.





-OOO 




